<svg width="25" height="29" viewBox="0 0 25 29" fill="none" xmlns="http://www.w3.org/2000/svg">
<path d="M10.605 2.00708C9.60964 2.94157 6.85886 5.52739 4.49363 7.75044L0.19519 11.7931L0.200659 20.1281L0.208862 28.4631L0.269019 28.5821C0.301831 28.6489 0.381128 28.7504 0.444019 28.8056C0.670972 29.0145 0.378394 29 4.71238 29H8.61707L8.62253 25.3056C8.63074 21.6315 8.63074 21.614 8.68816 21.4834C8.75925 21.3151 8.89597 21.17 9.05457 21.0946C9.17761 21.0336 9.19675 21.0336 12.4014 21.0249C15.9671 21.0162 15.8139 21.0104 16.0163 21.199C16.1585 21.3325 16.2378 21.4805 16.2706 21.6721C16.2925 21.7882 16.3007 22.9897 16.3007 25.4217V29L20.3585 28.9942L24.419 28.9855L24.501 28.9014C24.5475 28.8549 24.6241 28.7185 24.6733 28.5966L24.7635 28.3761L24.769 20.0759L24.7745 11.7757L18.6495 6.04398C15.1768 2.79356 12.4999 0.309317 12.4698 0.309317C12.4343 0.306416 11.7944 0.889748 10.605 2.00708Z" fill="#41522E"/>
</svg>
