<svg width="35" height="19" viewBox="0 0 35 19" fill="none" xmlns="http://www.w3.org/2000/svg">
<path d="M15.9358 1.33499C15.1647 2.06053 12.0585 4.98008 9.03699 7.82127C6.01277 10.6596 3.11707 13.3847 2.59753 13.8722C2.078 14.3598 1.33972 15.0534 0.956909 15.4104C0.574097 15.7702 0.202222 16.1214 0.131128 16.1939L-0.00012207 16.3245L0.902222 17.3983C1.39714 17.9875 1.82097 18.4692 1.84011 18.4692C1.86199 18.4663 3.48894 16.9572 5.45769 15.1143C15.7882 5.44442 17.4561 3.88887 17.4753 3.89468C17.4862 3.90048 18.7604 5.09326 20.3081 6.54723C21.853 8.0012 25.3448 11.2806 28.0628 13.8374C30.7807 16.3942 33.0175 18.4866 33.0311 18.4866C33.0448 18.4866 33.0639 18.4721 33.0721 18.4576C33.0858 18.4344 33.1022 18.4373 33.1296 18.4605C33.1815 18.504 33.1022 18.5911 34.0565 17.4419C34.4749 16.9398 34.8577 16.4813 34.9096 16.4232L35.0026 16.3187L32.7112 14.1741C31.4507 12.9929 28.4893 10.2184 26.1268 8.00991C23.7671 5.79848 20.8796 3.09659 19.7093 2.00248L17.5874 0.0145168H17.4643H17.3413L15.9358 1.33499Z" fill="#41522E"/>
</svg>
